<mxfile host="app.diagrams.net" modified="2024-08-13T17:21:27.749Z" agent="Mozilla/5.0 (Windows NT 10.0; Win64; x64) AppleWebKit/537.36 (KHTML, like Gecko) Chrome/127.0.0.0 Safari/537.36 Edg/127.0.0.0" version="24.4.10" etag="C5p7EAdrqE2II5OxAuNG" type="github">
  <diagram name="Page-1" id="Q_tjJmQo-i1wZge0qDu4">
    <mxGraphModel>
      <root>
        <mxCell id="0" />
        <mxCell id="1" parent="0" />
      </root>
    </mxGraphModel>
  </diagram>
</mxfile>
